<?xml version="1.0" encoding="UTF-8"?>
<svg width="17px" height="17px" viewBox="0 0 17 17" version="1.1" xmlns="http://www.w3.org/2000/svg" xmlns:xlink="http://www.w3.org/1999/xlink">
    <!-- Generator: Sketch 49.3 (51167) - http://www.bohemiancoding.com/sketch -->
    <title>icon-instagram</title>
    <desc>Created with Sketch.</desc>
    <defs></defs>
    <g id="port-new" stroke="none" stroke-width="1" fill="none" fill-rule="evenodd">
        <g id="MOBILE-1" transform="translate(-187.000000, -96.000000)" fill="#2A2A2A" fill-rule="nonzero">
            <g id="Group-10">
                <g id="Group-3">
                    <g id="Instagram" transform="translate(187.000000, 96.000000)">
                        <path d="M3.88799956,1.07999991 C2.33718418,1.07999991 1.07999991,2.33718418 1.07999991,3.88799956 L1.07999991,13.1120004 C1.07999991,14.6628158 2.33718418,15.9200001 3.88799956,15.9200001 L13.1120004,15.9200001 C14.6628158,15.9200001 15.9200001,14.6628158 15.9200001,13.1120004 L15.9200001,3.88799956 C15.9200001,2.33718418 14.6628158,1.07999991 13.1120004,1.07999991 L3.88799956,1.07999991 Z M3.88799956,0 L13.1120004,0 C15.2592833,-3.94449463e-16 17,1.7407167 17,3.88799956 L17,13.1120004 C17,15.2592833 15.2592833,17 13.1120004,17 L3.88799956,17 C1.7407167,17 2.62966309e-16,15.2592833 0,13.1120004 L0,3.88799956 C-2.62966309e-16,1.7407167 1.7407167,3.94449463e-16 3.88799956,0 Z M8.5,13.1325925 C11.0585102,13.1325925 13.1325925,11.0585102 13.1325925,8.5 C13.1325925,5.94148978 11.0585102,3.86740745 8.5,3.86740745 C5.94148978,3.86740745 3.86740745,5.94148978 3.86740745,8.5 C3.86740745,11.0585102 5.94148978,13.1325925 8.5,13.1325925 Z M8.5,12.0525926 C6.53795726,12.0525926 4.94740736,10.4620427 4.94740736,8.5 C4.94740736,6.53795726 6.53795726,4.94740736 8.5,4.94740736 C10.4620427,4.94740736 12.0525926,6.53795726 12.0525926,8.5 C12.0525926,10.4620427 10.4620427,12.0525926 8.5,12.0525926 Z M13.9997638,3.53691896 C13.9997638,2.97446819 13.5438142,2.51851852 12.9813634,2.51851852 C12.4189498,2.51851852 11.962963,2.97446819 11.962963,3.53691896 C11.962963,4.09933252 12.4189498,4.55531939 12.9813634,4.55531939 C13.5438142,4.55531939 13.9997638,4.09933252 13.9997638,3.53691896 Z" id="icon-instagram"></path>
                    </g>
                </g>
            </g>
        </g>
    </g>
</svg>
