<?xml version="1.0" encoding="utf-8"?>
<!-- Generator: Adobe Illustrator 22.1.0, SVG Export Plug-In . SVG Version: 6.00 Build 0)  -->
<svg version="1.1" id="Layer_1" xmlns="http://www.w3.org/2000/svg" xmlns:xlink="http://www.w3.org/1999/xlink" x="0px" y="0px"
	 viewBox="0 0 956.9 172" style="enable-background:new 0 0 956.9 172;" xml:space="preserve">
<path d="M354,1l-2,26c2.7,3.3,6.8,5.2,11,5c7.5-0.1,14.1,0.5,16,3c1.9,2.5,4.3,5.6,4,11c-0.3,5.4-1,86-1,86l19-1l-7-97
	c0,0,0.7-22.6-15-25c-15.7-2.4-16-2-16-2l-2-6H354z M554,132c0,0,23.7-79.4,17-97c-5.8-2.6-17-1.2-19-5s0-29,0-29s2.4,1.3,5,3
	s11.9,3.1,18,5s9.8,4.7,10,8s2,17,2,17l22-26c0,0,24-0.8,35,3s20.3,21.2,20,58s-8,61-8,61l-66-1l4-18c0,0,0.7-4,10-4s45,0,45,0
	s8.3-59.2-11-71s-44.1,2-50,14s-16,78-16,78L554,132z M487,1l-3,23c2,4.9,6.7,8,12,8c9.3,0.2,8,0,8,0l-1,99c0,0,17.6,0.9,17-3
	s-5-86-5-86s0.6-11.1,12-11c5.5,0.1,6,0,6,0l2-22h-28c0,0-10,2.1-12-7C492.4,1.4,489.7,1,487,1z M426,1h8c0,0-1.6,4.4,2,6
	s22,1.2,25,6s4.2,9.9,5,20s2,94,2,94l-55,2l4-19c0,0-1.4-2.8,10-3s28,0,28,0V49c0,0,1.7-17.3-15-18c-6-0.5-12.6,0.3-14-7
	S426,1,426,1z M294,0h7c0,0,1.1,8.1,9,9c5,0.5,10,0.5,15,0c0,0,11.5-1.1,7,16s2,93,2,93l1,51l-17,3l1-130c0,0,3.1-9.5-10-11
	s-15.6-3.2-16-6S294,0,294,0z"/>
</svg>
