<?xml version="1.0" encoding="UTF-8"?>
<svg width="11px" height="18px" viewBox="0 0 11 18" version="1.1" xmlns="http://www.w3.org/2000/svg" xmlns:xlink="http://www.w3.org/1999/xlink">
    <!-- Generator: Sketch 49.3 (51167) - http://www.bohemiancoding.com/sketch -->
    <title>icon-facebook</title>
    <desc>Created with Sketch.</desc>
    <defs></defs>
    <g id="port-new" stroke="none" stroke-width="1" fill="none" fill-rule="evenodd">
        <g id="MOBILE-1" transform="translate(-162.000000, -95.000000)" fill="#FFFFFF" fill-rule="nonzero">
            <g id="Group-10">
                <g id="Group-3">
                    <g id="facebook" transform="translate(162.000000, 95.000000)">
                        <path d="M6.10071702,16.4599608 L6.11271182,10.0865697 C6.11327235,9.78873326 6.35487388,9.547586 6.65271082,9.547586 L9.15687378,9.547586 L9.41187808,7.55197777 L6.63970157,7.55197777 C6.34146783,7.55197777 6.09970162,7.31021156 6.09970162,7.01197782 L6.09970162,5.14811091 C6.09970162,3.8669656 6.7171212,3.18686141 8.19930866,3.18686149 L9.3263763,3.1862556 L9.3263763,1.53999995 L7.43760176,1.53999995 C5.24246438,1.53999995 3.92968674,2.74353178 3.92968674,4.85880961 L3.92968674,7.01180037 C3.92968674,7.31003411 3.68792053,7.55180032 3.38968679,7.55180032 L1.5404942,7.55180032 L1.54894728,9.547586 L3.40237717,9.547586 C3.70100594,9.547586 3.94293547,9.78996904 3.94237618,10.0885973 L3.93044387,16.4598028 L6.10071702,16.4599608 Z M7.19169544,10.6275859 L7.17970057,17.0010163 C7.17914001,17.298868 6.93751454,17.5400216 6.63966227,17.54 L3.38939239,17.5397634 C3.09077898,17.5397416 2.84887344,17.297365 2.8494327,16.9987521 L2.86136494,10.6275859 L1.46610453,10.6275859 C0.925612335,10.6275859 0.471216833,10.2075409 0.46944676,9.66772157 L0.460008949,7.43949531 C0.457645661,6.89628172 0.913620132,6.47180042 1.45685777,6.47180042 L2.84968683,6.47180042 L2.84968683,4.85880961 C2.84968683,2.12510666 4.66593687,0.460000046 7.43760176,0.460000046 L9.40952228,0.460000046 C9.95119102,0.460000046 10.4063762,0.882038024 10.4063762,1.42374861 L10.4063762,3.30246211 C10.4063762,3.84411736 9.95148236,4.26621067 9.41006769,4.2662106 L8.19959899,4.26686132 C7.33813772,4.26686132 7.17970153,4.44138303 7.17970153,5.14811091 L7.17970153,6.47197787 L9.51117292,6.47197787 C10.1001856,6.47197787 10.57574,6.96841453 10.5004191,7.55385828 L10.2157106,9.78192695 C10.153207,10.2726676 9.722497,10.6275859 9.22643632,10.6275859 L7.19169544,10.6275859 Z" id="icon-facebook"></path>
                    </g>
                </g>
            </g>
        </g>
    </g>
</svg>
