<svg xmlns="http://www.w3.org/2000/svg" width="800" height="531" viewBox="0 0 800 531">
  <metadata><?xpacket begin="﻿" id="W5M0MpCehiHzreSzNTczkc9d"?>
<x:xmpmeta xmlns:x="adobe:ns:meta/" x:xmptk="Adobe XMP Core 5.6-c140 79.160451, 2017/05/06-01:08:21        ">
   <rdf:RDF xmlns:rdf="http://www.w3.org/1999/02/22-rdf-syntax-ns#">
      <rdf:Description rdf:about=""/>
   </rdf:RDF>
</x:xmpmeta>





















<?xpacket end="w"?></metadata>
<defs>
    <style>
      .cls-1 {
        fill-rule: evenodd;
      }
    </style>
  </defs>
  <path class="cls-1" d="M240,171l-2,26a13.534,13.534,0,0,0,11,5c7.5-.052,14.13.462,16,3s4.315,5.553,4,11-1,86-1,86l19-1-7-97s0.734-22.639-15-25-16-2-16-2l-2-6h-7ZM440,302s23.685-79.406,17-97c-5.823-2.6-16.992-1.181-19-5s0-29,0-29,2.411,1.324,5,3,11.871,3.128,18,5,9.794,4.686,10,8,2,17,2,17l22-26s23.952-.836,35,3,20.258,21.164,20,58-8,61-8,61l-66-1,4-18s0.7-4.035,10-4,45,0,45,0,8.3-59.229-11-71-44.137,1.991-50,14-16,78-16,78ZM373,171l-3,23a12.855,12.855,0,0,0,12,8c9.288,0.189,8,0,8,0l-1,99s17.581,0.927,17-3-5-86-5-86,0.625-11.076,12-11c5.539,0.06,6,0,6,0l2-22H393s-10.046,2.121-12-7A36.641,36.641,0,0,0,373,171Zm-61,0h8s-1.616,4.438,2,6,21.982,1.216,25,6,4.16,9.945,5,20,2,94,2,94l-55,2,4-19s-1.389-2.829,10-3,28,0,28,0V219s1.656-17.288-15-18c-5.987-.482-12.639.3-14-7S312,171,312,171Zm-132-1h7s1.141,8.135,9,9a73.538,73.538,0,0,0,15,0s11.464-1.115,7,16,2,93,2,93l1,51-17,3,1-130s3.057-9.526-10-11-15.59-3.178-16-6S180,170,180,170Z"/>
</svg>
